HIERARCHY
ROOT ROOT
{
	OFFSET 0.000000 56.020000 -5.659234
	CHANNELS 6 Xposition Yposition Zposition Xrotation Yrotation Zrotation 
	JOINT C_spine0001_bind_JNT
	{
		OFFSET 0.000000 1.618999 0.000000
		CHANNELS 3 Xrotation Yrotation Zrotation
		JOINT C_spine0002_bind_JNT
		{
			OFFSET 0.000000 4.942001 0.000001
			CHANNELS 3 Xrotation Yrotation Zrotation
			JOINT C_spine0003_bind_JNT
			{
				OFFSET 0.000000 4.942001 -0.000000
				CHANNELS 3 Xrotation Yrotation Zrotation
				JOINT C_neck0001_bind_JNT
				{
					OFFSET 0.000000 17.026009 -0.000000
					CHANNELS 3 Xrotation Yrotation Zrotation
					JOINT C_neck0002_bind_JNT
					{
						OFFSET 0.000000 3.249985 0.000000
						CHANNELS 3 Xrotation Yrotation Zrotation
						JOINT C_head_bind_JNT
						{
							OFFSET 0.000000 5.278008 0.000000
							CHANNELS 3 Xrotation Yrotation Zrotation
							End Site
							{
								OFFSET 0.000000 0.000000 0.000000
							}
						}
					}
				}
				JOINT L_clavicle_bind_JNT
				{
					OFFSET 4.590000 12.067001 0.834000
					CHANNELS 3 Xrotation Yrotation Zrotation
					JOINT L_armUpper0001_bind_JNT
					{
						OFFSET 7.812635 0.512001 -3.452945
						CHANNELS 3 Xrotation Yrotation Zrotation
						JOINT L_armLower0001_bind_JNT
						{
							OFFSET 15.265892 -6.552116 -0.058157
							CHANNELS 3 Xrotation Yrotation Zrotation
							JOINT L_hand0001_bind_JNT
							{
								OFFSET 14.747667 -6.369995 5.049225
								CHANNELS 3 Xrotation Yrotation Zrotation
								End Site
								{
									OFFSET 0.000000 0.000000 0.000000
								}
							}
						}
					}
				}
				JOINT R_clavicle_bind_JNT
				{
					OFFSET -4.590000 12.067001 0.834000
					CHANNELS 3 Xrotation Yrotation Zrotation
					JOINT R_armUpper0001_bind_JNT
					{
						OFFSET -7.812635 0.512001 -3.452945
						CHANNELS 3 Xrotation Yrotation Zrotation
						JOINT R_armLower0001_bind_JNT
						{
							OFFSET -15.265890 -6.552124 -0.058160
							CHANNELS 3 Xrotation Yrotation Zrotation
							JOINT R_hand0001_bind_JNT
							{
								OFFSET -14.746784 -6.369629 5.048937
								CHANNELS 3 Xrotation Yrotation Zrotation
								End Site
								{
									OFFSET 0.000000 0.000000 0.000000
								}
							}
						}
					}
				}
			}
		}
	}
	JOINT C_pelvis0001_bind_JNT
	{
		OFFSET -0.000000 0.000000 0.000000
		CHANNELS 3 Xrotation Yrotation Zrotation
		JOINT L_legUpper0001_bind_JNT
		{
			OFFSET 6.599999 -6.027000 0.539000
			CHANNELS 3 Xrotation Yrotation Zrotation
			JOINT L_legLower0001_bind_JNT
			{
				OFFSET -0.140713 -19.187443 0.040261
				CHANNELS 3 Xrotation Yrotation Zrotation
				JOINT L_foot0001_bind_JNT
				{
					OFFSET -0.132215 -18.028637 -1.138370
					CHANNELS 3 Xrotation Yrotation Zrotation
					JOINT L_foot0002_bind_JNT
					{
						OFFSET 0.007014 -4.693133 9.886524
						CHANNELS 3 Xrotation Yrotation Zrotation
						End Site
						{
							OFFSET 0.000000 0.000000 0.000000
						}
					}
				}
			}
		}
		JOINT R_legUpper0001_bind_JNT
		{
			OFFSET -6.599999 -6.027000 0.539000
			CHANNELS 3 Xrotation Yrotation Zrotation
			JOINT R_legLower0001_bind_JNT
			{
				OFFSET 0.140710 -19.187164 0.040550
				CHANNELS 3 Xrotation Yrotation Zrotation
				JOINT R_foot0001_bind_JNT
				{
					OFFSET 0.132215 -18.028633 -1.138362
					CHANNELS 3 Xrotation Yrotation Zrotation
					JOINT R_foot0002_bind_JNT
					{
						OFFSET -0.007014 -4.693128 9.886505
						CHANNELS 3 Xrotation Yrotation Zrotation
						End Site
						{
							OFFSET 0.000000 0.000000 0.000000
						}
					}
				}
			}
		}
	}
}
MOTION
Frames: 16
Frame Time: 0.033333
3.003685 45.849815 57.689758 0.007737 6.777064 0.000763 -0.406116 -8.090608 0.780620 3.770779 3.770846 -0.481716 2.359907 4.189830 0.282680 5.986259 -0.153784 1.444435 -2.991891 -1.687037 -0.705098 -16.973213 0.308108 -1.729863 -4.082734 9.737916 -2.749803 2.606117 16.145281 -66.103729 15.785324 8.026233 1.350738 -0.707112 -39.876816 -28.022604 -5.593429 -14.672224 2.632122 5.029942 -7.623167 60.586342 13.708457 -9.702025 0.115985 -12.192660 23.869234 33.364708 1.034701 -8.426695 1.150330 -20.767775 1.117010 3.857330 46.176682 -1.011166 0.550204 -25.022640 -3.749606 -3.816216 -2.066685 -0.531847 -0.142845 16.907434 0.503589 6.238950 12.655144 8.198515 -4.742143 -23.577923 -4.590989 -5.610381 -5.320323 0.165385 -0.985557 
3.185684 45.950924 57.711586 0.010087 6.519512 -0.006127 -0.345464 -8.305051 0.784372 3.579708 3.662027 -0.485066 2.235325 4.130494 0.259140 6.009032 -0.067019 1.497648 -2.964953 -1.534026 -0.715502 -16.813408 0.451626 -1.841668 -4.061115 9.704473 -2.704066 2.658146 16.264238 -66.124130 16.073416 8.024238 1.335091 -0.818856 -39.730797 -28.241243 -5.529942 -14.675711 2.596069 4.968697 -7.592958 60.521744 13.803823 -9.619825 0.240760 -12.441894 23.809231 32.946632 1.124959 -8.569202 1.100690 -20.181280 0.943119 3.713887 45.466373 -0.710507 0.229717 -24.963720 -3.579708 -3.591601 -2.051566 -0.513793 -0.147474 17.044413 0.586766 6.012752 11.910153 8.489499 -4.750668 -23.056314 -4.723292 -5.414827 -5.310976 0.201371 -0.955336 
3.315155 46.015110 57.749847 0.008334 6.378868 -0.005169 -0.363815 -8.600712 0.710262 3.581275 3.660328 -0.476677 2.086394 4.011708 0.325132 5.977981 -0.067848 1.522221 -2.912254 -1.350185 -0.726871 -16.616955 0.497095 -2.008041 -4.137104 9.714043 -2.722999 2.812766 16.350142 -66.112114 16.156061 8.024305 1.453400 -0.623559 -39.714382 -28.506433 -5.572390 -14.677460 2.603770 4.949685 -7.516018 60.416676 13.748055 -9.502732 0.331956 -12.658402 23.831015 32.653172 1.172829 -8.868603 1.113710 -19.863464 0.879318 3.625263 45.013794 -0.432988 -0.009840 -24.859077 -3.599690 -3.473412 -2.089755 -0.450724 -0.181183 17.281746 0.669645 5.913046 11.398824 8.789026 -4.916514 -22.853474 -4.881161 -5.291654 -5.205648 0.172094 -0.987658 
3.430221 46.127815 57.805412 0.009835 6.136968 -0.004656 -0.326898 -8.788280 0.751733 3.379018 3.586366 -0.510872 2.050162 4.003224 0.285484 5.973525 -0.039284 1.652667 -2.929143 -1.133597 -0.834289 -16.454206 0.569977 -2.063866 -4.207356 9.706498 -2.593367 3.008345 16.341816 -66.122871 16.371075 8.003736 1.389856 -0.516990 -39.767349 -28.612904 -5.572065 -14.721273 2.586660 4.937356 -7.431529 60.420616 13.742674 -9.410439 0.362353 -12.896721 23.777969 32.274632 1.134925 -9.044441 1.100912 -19.371830 0.793903 3.490214 44.400223 -0.158322 -0.278591 -24.651581 -3.531734 -3.330144 -2.130383 -0.466391 -0.138973 17.728054 0.841030 5.742867 10.714659 9.108587 -5.078878 -22.491924 -5.058665 -5.207527 -5.270299 0.101531 -0.922891 
3.520117 46.159096 57.865940 0.008211 5.985346 -0.001287 -0.381060 -9.021984 0.632756 3.396203 3.545790 -0.439107 2.046599 3.927960 0.275006 5.952265 -0.044918 1.685158 -2.893988 -1.028394 -0.818392 -16.438929 0.621057 -2.180692 -4.354679 9.724848 -2.527446 3.143792 16.371283 -66.109230 16.550694 7.973872 1.378211 -0.311143 -39.947136 -28.607630 -5.574543 -14.673026 2.582316 4.855424 -7.353514 60.452614 13.681956 -9.378299 0.454510 -13.323250 23.879719 32.067741 1.122124 -9.265971 1.138679 -19.183645 0.704783 3.332055 44.286900 -0.008701 -0.433597 -24.664024 -3.518863 -3.248559 -2.138932 -0.439730 -0.088109 17.850941 0.798242 5.560234 10.612627 9.393673 -5.094752 -22.467907 -5.135475 -5.141708 -5.273680 0.127819 -0.955806 
3.582149 46.187073 57.937988 0.010246 5.690313 -0.004508 -0.350156 -9.103307 0.562327 3.329826 3.476730 -0.413637 1.973401 3.881710 0.235735 5.950957 0.024628 1.761982 -2.882833 -0.962427 -0.841024 -16.298893 0.696051 -2.273372 -4.330716 9.629296 -2.408614 3.115523 16.408270 -66.163971 16.696671 8.097607 1.370997 -0.078767 -40.150036 -28.631342 -5.535646 -14.605187 2.625793 4.713536 -7.436200 60.485264 13.870271 -9.324029 0.425656 -13.710224 23.845457 31.888252 1.052913 -9.339514 1.073702 -18.973383 0.579286 3.218516 44.236004 0.175762 -0.621047 -24.696926 -3.481509 -3.055121 -2.184231 -0.454311 -0.071232 18.140846 0.898652 5.467792 10.290594 9.557221 -5.013654 -22.252506 -5.162617 -5.119839 -5.377742 0.147491 -1.011668 
3.605391 46.216488 58.024391 0.009276 5.617798 -0.001109 -0.362581 -9.385293 0.418020 3.338186 3.466959 -0.358490 1.930657 3.826991 0.361616 5.960043 0.002907 1.741601 -2.888994 -0.829762 -0.837505 -16.261913 0.724660 -2.316400 -4.422339 9.626180 -2.473469 3.203793 16.481991 -66.045311 16.781532 7.994573 1.314874 0.119634 -40.284168 -28.703001 -5.563523 -14.547923 2.625318 4.681453 -7.491834 60.518265 14.114307 -9.363585 0.455637 -14.013786 23.936338 31.814381 1.060815 -9.620654 1.041925 -18.922148 0.480431 3.204297 44.187809 0.258670 -0.670970 -24.667198 -3.456807 -3.028790 -2.249426 -0.404493 -0.096497 18.330338 0.973868 5.520864 10.224252 9.679474 -5.141122 -22.337437 -5.100341 -5.103008 -5.358773 0.169088 -1.064739 
3.619759 46.253922 58.112057 0.007001 5.516863 -0.000498 -0.307118 -9.585503 0.364902 3.155082 3.422892 -0.288345 1.964748 3.815326 0.339567 5.950295 0.011248 1.872223 -2.867527 -0.736295 -0.914855 -16.243231 0.800882 -2.362147 -4.430742 9.587637 -2.402351 3.244929 16.494387 -66.025497 16.893387 7.949491 1.192516 0.288081 -40.555851 -28.685013 -5.596514 -14.631188 2.669535 4.722088 -7.458198 60.584793 14.431262 -9.444958 0.387540 -14.428677 24.063459 31.903320 0.967151 -9.794518 0.939401 -18.851336 0.380436 3.262419 44.270538 0.399598 -0.822904 -24.695618 -3.515260 -2.954060 -2.290951 -0.454322 -0.081301 18.737509 1.108423 5.546677 10.013224 9.817730 -5.174099 -22.390553 -5.080874 -5.123667 -5.370611 0.198568 -1.104538 
3.629075 46.271507 58.181625 0.009904 5.379632 -0.001613 -0.394509 -9.744672 0.278385 3.232609 3.392301 -0.246409 1.955930 3.741294 0.371070 5.961535 0.047072 1.845063 -2.852925 -0.667339 -0.881726 -16.215910 0.844909 -2.402258 -4.512344 9.648166 -2.374172 3.346031 16.545855 -66.026413 17.009180 7.806381 1.222169 0.443353 -40.689827 -28.630301 -5.570104 -14.544622 2.660660 4.719378 -7.491833 60.593140 14.560552 -9.474144 0.405798 -14.642687 24.211878 32.052284 0.927014 -9.955995 0.950164 -18.734056 0.329020 3.239143 44.288006 0.496678 -0.898544 -24.806639 -3.547895 -2.934149 -2.250277 -0.422810 -0.094328 18.818668 1.079971 5.534337 10.088567 9.976480 -5.204007 -22.430941 -4.977501 -5.214772 -5.381839 0.179231 -1.058035 
3.646719 46.266289 58.233250 0.009518 5.202984 -0.000586 -0.352012 -9.799867 0.194880 3.163397 3.360194 -0.213437 1.964463 3.726627 0.343187 5.975943 0.078845 1.946314 -2.871994 -0.704577 -0.865683 -16.092863 0.869928 -2.511126 -4.505589 9.554637 -2.323351 3.317200 16.650242 -65.936836 17.164192 7.864522 1.143079 0.639069 -40.962128 -28.523737 -5.573421 -14.597080 2.730850 4.757196 -7.560765 60.607025 14.841403 -9.411290 0.351262 -14.916019 24.203856 32.268143 0.832242 -9.995606 0.881474 -18.695620 0.227540 3.252055 44.433529 0.630856 -1.043603 -24.913454 -3.606702 -2.839919 -2.249762 -0.510149 -0.069735 19.004547 1.043853 5.540723 10.141139 10.187560 -5.324791 -22.544998 -4.973893 -5.178948 -5.357753 0.204922 -1.103772 
3.637969 46.259682 58.294144 0.008396 5.121523 0.000123 -0.380336 -9.966021 0.161829 3.190762 3.370994 -0.193860 1.938953 3.701171 0.423014 5.947433 0.036813 1.882073 -2.844463 -0.691980 -0.866632 -16.029757 0.927370 -2.416580 -4.527956 9.568987 -2.412369 3.354771 16.647360 -65.904602 17.188089 7.801674 1.065104 0.836789 -41.033764 -28.358984 -5.558498 -14.597245 2.690737 4.762441 -7.585849 60.649509 15.124652 -9.551971 0.269521 -15.201878 24.333015 32.399002 0.782878 -10.140511 0.871338 -18.742538 0.117584 3.227402 44.527328 0.762752 -1.099302 -24.898249 -3.641194 -2.863668 -2.275382 -0.419106 -0.109600 19.153799 1.080371 5.594660 10.166662 10.282546 -5.401837 -22.564669 -4.942321 -5.205897 -5.427553 0.199530 -1.128768 
3.615833 46.239235 58.369236 0.008074 5.102769 0.001358 -0.340248 -10.167534 0.176268 3.110859 3.353084 -0.137648 1.962396 3.731108 0.404440 5.904178 0.077540 1.912075 -2.809841 -0.730432 -0.860876 -15.890209 0.884763 -2.472313 -4.523461 9.593144 -2.433510 3.363246 16.704674 -65.865280 17.378565 7.780620 0.935145 0.963062 -41.129749 -28.237766 -5.581516 -14.652673 2.678659 4.841833 -7.576074 60.702442 15.365403 -9.655321 0.195800 -15.382486 24.489077 32.583233 0.724943 -10.324150 0.868011 -18.933479 0.043390 3.249051 44.837498 1.046864 -1.291403 -24.988943 -3.773337 -2.874922 -2.287724 -0.472317 -0.126689 19.378168 1.134828 5.636393 10.287692 10.373954 -5.452360 -22.793686 -4.949080 -5.305354 -5.440934 0.237233 -1.206540 
3.605271 46.224670 58.440235 0.009758 5.098897 -0.000749 -0.383130 -10.382782 0.208755 3.148435 3.362237 -0.192614 1.954412 3.701369 0.413490 5.865451 0.083168 1.901643 -2.788394 -0.680962 -0.862962 -15.829022 0.879780 -2.433582 -4.492063 9.649534 -2.467902 3.370061 16.679710 -65.886612 17.329847 7.709267 0.982976 1.091925 -41.143948 -28.110889 -5.523116 -14.635444 2.684559 4.818250 -7.582942 60.715015 15.556994 -9.807281 0.141757 -15.414550 24.567064 32.757824 0.713436 -10.520011 0.870757 -19.051527 0.001596 3.211651 44.957054 1.253538 -1.359142 -25.031662 -3.862736 -2.868016 -2.249020 -0.426737 -0.158909 19.442411 1.199154 5.665451 10.418593 10.492799 -5.502273 -22.815886 -4.940527 -5.408988 -5.527102 0.198030 -1.142185 
3.609055 46.197742 58.499985 0.008705 5.150526 0.000349 -0.347347 -10.594253 0.210244 3.075630 3.364504 -0.144210 2.001227 3.753219 0.343617 5.863183 0.059334 1.945775 -2.794587 -0.722286 -0.849088 -15.645267 0.886678 -2.484768 -4.474968 9.628216 -2.485612 3.287504 16.680256 -65.847900 17.434795 7.759006 0.936930 1.241212 -41.305927 -27.966719 -5.529454 -14.704446 2.662138 4.902878 -7.561505 60.824997 15.732976 -9.875807 0.078325 -15.411775 24.646778 32.905071 0.694185 -10.783461 0.882662 -19.271574 -0.014093 3.219245 45.218506 1.531123 -1.523917 -25.087849 -3.998112 -2.870339 -2.201639 -0.469660 -0.156658 19.500523 1.275367 5.640615 10.683902 10.580922 -5.572407 -23.076752 -5.036229 -5.405848 -5.516148 0.208861 -1.204664 
3.619539 46.171570 58.550972 0.008992 5.011119 -0.000426 -0.410485 -10.678305 0.221586 3.167216 3.431006 -0.187064 1.983974 3.738620 0.413669 5.814091 0.057635 1.876569 -2.774577 -0.757272 -0.834858 -15.609014 0.861549 -2.475836 -4.504293 9.634200 -2.534870 3.330946 16.649221 -65.898170 17.423014 7.756943 0.899122 1.400194 -41.399467 -27.768744 -5.530568 -14.666883 2.619538 4.884568 -7.636412 60.844276 15.872240 -10.012871 0.019657 -15.431850 24.680895 32.976028 0.681889 -10.867663 0.906966 -19.407631 0.010596 3.165479 45.386333 1.786332 -1.635737 -25.152489 -4.133453 -2.926093 -2.164840 -0.419955 -0.095415 19.512569 1.405579 5.628583 10.823700 10.592948 -5.506958 -23.113085 -5.161013 -5.508790 -5.630982 0.192333 -1.218871 
3.645254 46.130909 58.588505 0.008801 4.872726 0.001859 -0.408538 -10.737379 0.209317 3.127580 3.445627 -0.135080 1.986471 3.787186 0.388217 5.688908 0.026804 1.847820 -2.662981 -0.748661 -0.782359 -15.438405 0.843642 -2.521984 -4.487420 9.648567 -2.544905 3.320705 16.573816 -65.873657 17.479362 7.830947 0.907276 1.441859 -41.538345 -27.720675 -5.525384 -14.704287 2.567775 4.951408 -7.676553 60.960499 15.916638 -10.122976 -0.069590 -15.275866 24.735706 32.990101 0.633754 -10.940101 0.914701 -19.665499 0.019160 3.137141 45.688633 2.090148 -1.841576 -25.204756 -4.253991 -2.926600 -2.137386 -0.477892 -0.111245 19.504187 1.448364 5.606785 11.165253 10.637750 -5.557837 -23.234121 -5.343813 -5.545393 -5.834650 0.232165 -1.191309 
